<svg width="98" height="68" viewBox="0 0 98 68" fill="none" xmlns="http://www.w3.org/2000/svg">
<g filter="url(#filter0_d_4_590)">
<path fill-rule="evenodd" clip-rule="evenodd" d="M88.8951 59.6531H8.92507C6.20479 59.6531 4 57.8819 4 55.6965V51.6358C4 49.4504 6.20479 47.6792 8.92507 47.6792H88.8951C91.6154 47.6792 93.8202 49.4504 93.8202 51.6358V55.6965C93.8202 57.8819 91.6154 59.6531 88.8951 59.6531Z" fill="#212121"/>
<path fill-rule="evenodd" clip-rule="evenodd" d="M84.9319 34.918H12.888C10.1693 34.918 7.96289 33.1468 7.96289 30.9614V30.3877C7.96289 28.2024 10.1693 26.4312 12.888 26.4312H84.9319C87.6522 26.4312 89.857 28.2024 89.857 30.3877V30.9614C89.857 33.1468 87.6522 34.918 84.9319 34.918Z" fill="#8E5847"/>
<path fill-rule="evenodd" clip-rule="evenodd" d="M89.1775 28.5954H8.6427C6.07838 28.5954 4 26.9258 4 24.8657C4 11.1325 17.8575 0 34.9524 0H62.8677C79.9627 0 93.8202 11.1325 93.8202 24.8657C93.8202 26.9258 91.7418 28.5954 89.1775 28.5954Z" fill="#212121"/>
<path fill-rule="evenodd" clip-rule="evenodd" d="M84.9319 47.6792H12.888C10.1693 47.6792 7.96289 45.908 7.96289 43.7227V43.1489C7.96289 40.9649 10.1693 39.1924 12.888 39.1924H84.9319C87.6522 39.1924 89.857 40.9649 89.857 43.1489V43.7227C89.857 45.908 87.6522 47.6792 84.9319 47.6792Z" fill="#8E5847"/>
<path fill-rule="evenodd" clip-rule="evenodd" d="M33.5747 34.2073C33.5747 35.6316 30.1912 36.787 26.0163 36.787C21.8415 36.787 18.458 35.6316 18.458 34.2073C18.458 32.7842 21.8415 31.6289 26.0163 31.6289C30.1912 31.6289 33.5747 32.7842 33.5747 34.2073Z" fill="#79D86A"/>
<path fill-rule="evenodd" clip-rule="evenodd" d="M48.6919 34.2073C48.6919 35.6316 45.3084 36.787 41.1335 36.787C36.9587 36.787 33.5752 35.6316 33.5752 34.2073C33.5752 32.7842 36.9587 31.6289 41.1335 31.6289C45.3084 31.6289 48.6919 32.7842 48.6919 34.2073Z" fill="#79D86A"/>
<path fill-rule="evenodd" clip-rule="evenodd" d="M63.8097 34.2073C63.8097 35.6316 60.4246 36.787 56.2514 36.787C52.0766 36.787 48.6914 35.6316 48.6914 34.2073C48.6914 32.7842 52.0766 31.6289 56.2514 31.6289C60.4246 31.6289 63.8097 32.7842 63.8097 34.2073Z" fill="#79D86A"/>
<path fill-rule="evenodd" clip-rule="evenodd" d="M78.9263 34.2073C78.9263 35.6316 75.5427 36.787 71.3679 36.787C67.1931 36.787 63.8096 35.6316 63.8096 34.2073C63.8096 32.7842 67.1931 31.6289 71.3679 31.6289C75.5427 31.6289 78.9263 32.7842 78.9263 34.2073Z" fill="#79D86A"/>
<path fill-rule="evenodd" clip-rule="evenodd" d="M30.5725 34.8137C30.5725 33.8549 26.5158 33.0781 21.512 33.0781C16.5081 33.0781 12.4531 33.8549 12.4531 34.8137C12.4531 35.7725 16.5081 36.5507 21.512 36.5507C26.5158 36.5507 30.5725 35.7725 30.5725 34.8137Z" fill="#F93723"/>
<path fill-rule="evenodd" clip-rule="evenodd" d="M48.6916 34.8137C48.6916 33.8549 44.6366 33.0781 39.6328 33.0781C34.6289 33.0781 30.5723 33.8549 30.5723 34.8137C30.5723 35.7725 34.6289 36.5507 39.6328 36.5507C44.6366 36.5507 48.6916 35.7725 48.6916 34.8137Z" fill="#F93723"/>
<path fill-rule="evenodd" clip-rule="evenodd" d="M66.8124 34.8137C66.8124 33.8549 62.7558 33.0781 57.7519 33.0781C52.748 33.0781 48.6914 33.8549 48.6914 34.8137C48.6914 35.7725 52.748 36.5507 57.7519 36.5507C62.7558 36.5507 66.8124 35.7725 66.8124 34.8137Z" fill="#F93723"/>
<path fill-rule="evenodd" clip-rule="evenodd" d="M84.9318 34.8137C84.9318 33.8549 80.8752 33.0781 75.8714 33.0781C70.8675 33.0781 66.8125 33.8549 66.8125 34.8137C66.8125 35.7725 70.8675 36.5507 75.8714 36.5507C80.8752 36.5507 84.9318 35.7725 84.9318 34.8137Z" fill="#F93723"/>
<path fill-rule="evenodd" clip-rule="evenodd" d="M89.8978 39.1924H73.8125L70.9297 43.3929C70.2615 44.0141 69.0548 43.9983 68.4129 43.36L65.8535 39.1924H7.92321C6.4539 39.1924 5.26367 38.2362 5.26367 37.0572V37.0545C5.26367 35.8741 6.4539 34.918 7.92321 34.918H89.8978C91.3654 34.918 92.5573 35.8741 92.5573 37.0545V37.0572C92.5573 38.2362 91.3654 39.1924 89.8978 39.1924Z" fill="#FFD600"/>
<path fill-rule="evenodd" clip-rule="evenodd" d="M39.6536 1.87256C38.859 1.87256 38.2139 2.39087 38.2139 3.0292C38.2139 3.66752 38.859 4.18583 39.6536 4.18583C40.4482 4.18583 41.0917 3.66752 41.0917 3.0292C41.0917 2.39087 40.4482 1.87256 39.6536 1.87256Z" fill="#F2DAAE"/>
<path fill-rule="evenodd" clip-rule="evenodd" d="M49.3287 9.64697C48.5342 9.64697 47.8906 10.1653 47.8906 10.8036C47.8906 11.4419 48.5342 11.9589 49.3287 11.9589C50.1233 11.9589 50.7685 11.4419 50.7685 10.8036C50.7685 10.1653 50.1233 9.64697 49.3287 9.64697Z" fill="#F2DAAE"/>
<path fill-rule="evenodd" clip-rule="evenodd" d="M26.734 3.96045C25.9394 3.96045 25.2959 4.47876 25.2959 5.11709C25.2959 5.75541 25.9394 6.27372 26.734 6.27372C27.5302 6.27372 28.1738 5.75541 28.1738 5.11709C28.1738 4.47876 27.5302 3.96045 26.734 3.96045Z" fill="#F2DAAE"/>
<path fill-rule="evenodd" clip-rule="evenodd" d="M17.3948 11.2017C16.6003 11.2017 15.9551 11.7187 15.9551 12.357C15.9551 12.9953 16.6003 13.5136 17.3948 13.5136C18.1894 13.5136 18.833 12.9953 18.833 12.357C18.833 11.7187 18.1894 11.2017 17.3948 11.2017Z" fill="#F2DAAE"/>
<path fill-rule="evenodd" clip-rule="evenodd" d="M58.0387 4.20508C57.2441 4.20508 56.6006 4.72339 56.6006 5.36171C56.6006 6.00004 57.2441 6.51835 58.0387 6.51835C58.8349 6.51835 59.4785 6.00004 59.4785 5.36171C59.4785 4.72339 58.8349 4.20508 58.0387 4.20508Z" fill="#F2DAAE"/>
<path fill-rule="evenodd" clip-rule="evenodd" d="M58.0387 14.3115C57.2441 14.3115 56.6006 14.8298 56.6006 15.4682C56.6006 16.1065 57.2441 16.6248 58.0387 16.6248C58.8349 16.6248 59.4785 16.1065 59.4785 15.4682C59.4785 14.8298 58.8349 14.3115 58.0387 14.3115Z" fill="#F2DAAE"/>
<path fill-rule="evenodd" clip-rule="evenodd" d="M69.651 19.7534C68.8564 19.7534 68.2129 20.2717 68.2129 20.9101C68.2129 21.5484 68.8564 22.0667 69.651 22.0667C70.4472 22.0667 71.0908 21.5484 71.0908 20.9101C71.0908 20.2717 70.4472 19.7534 69.651 19.7534Z" fill="#F2DAAE"/>
<path fill-rule="evenodd" clip-rule="evenodd" d="M34.8131 11.2017C34.0185 11.2017 33.375 11.72 33.375 12.3583C33.375 12.9966 34.0185 13.5149 34.8131 13.5149C35.6093 13.5149 36.2529 12.9966 36.2529 12.3583C36.2529 11.72 35.6093 11.2017 34.8131 11.2017Z" fill="#F2DAAE"/>
<path fill-rule="evenodd" clip-rule="evenodd" d="M42.5543 18.9761C41.7598 18.9761 41.1162 19.4944 41.1162 20.1327C41.1162 20.771 41.7598 21.2893 42.5543 21.2893C43.3506 21.2893 43.9941 20.771 43.9941 20.1327C43.9941 19.4944 43.3506 18.9761 42.5543 18.9761Z" fill="#F2DAAE"/>
<path fill-rule="evenodd" clip-rule="evenodd" d="M20.2982 20.5308C19.5036 20.5308 18.8584 21.0491 18.8584 21.6874C18.8584 22.3257 19.5036 22.8427 20.2982 22.8427C21.0927 22.8427 21.7379 22.3257 21.7379 21.6874C21.7379 21.0491 21.0927 20.5308 20.2982 20.5308Z" fill="#F2DAAE"/>
<path fill-rule="evenodd" clip-rule="evenodd" d="M84.1693 16.644C83.3747 16.644 82.7295 17.1624 82.7295 17.8007C82.7295 18.439 83.3747 18.9573 84.1693 18.9573C84.9638 18.9573 85.6074 18.439 85.6074 17.8007C85.6074 17.1624 84.9638 16.644 84.1693 16.644Z" fill="#F0D9AE"/>
<path fill-rule="evenodd" clip-rule="evenodd" d="M71.0853 3.96045C70.2907 3.96045 69.6455 4.47876 69.6455 5.11709C69.6455 5.75541 70.2907 6.27372 71.0853 6.27372C71.8798 6.27372 72.5234 5.75541 72.5234 5.11709C72.5234 4.47876 71.8798 3.96045 71.0853 3.96045Z" fill="#F0D9AE"/>
<path fill-rule="evenodd" clip-rule="evenodd" d="M79.3304 12.7568C78.5358 12.7568 77.8906 13.2738 77.8906 13.9122C77.8906 14.5505 78.5358 15.0688 79.3304 15.0688C80.125 15.0688 80.7685 14.5505 80.7685 13.9122C80.7685 13.2738 80.125 12.7568 79.3304 12.7568Z" fill="#F0D9AE"/>
<path fill-rule="evenodd" clip-rule="evenodd" d="M70.6204 12.7568C69.8259 12.7568 69.1807 13.2738 69.1807 13.9122C69.1807 14.5505 69.8259 15.0688 70.6204 15.0688C71.415 15.0688 72.0586 14.5505 72.0586 13.9122C72.0586 13.2738 71.415 12.7568 70.6204 12.7568Z" fill="#F0D9AE"/>
<path fill-rule="evenodd" clip-rule="evenodd" d="M55.137 19.7534C54.3425 19.7534 53.6973 20.2704 53.6973 20.9087C53.6973 21.5471 54.3425 22.0654 55.137 22.0654C55.9316 22.0654 56.5752 21.5471 56.5752 20.9087C56.5752 20.2704 55.9316 19.7534 55.137 19.7534Z" fill="#F0D9AE"/>
<path fill-rule="evenodd" clip-rule="evenodd" d="M29.9759 16.644C29.1813 16.644 28.5361 17.161 28.5361 17.7994C28.5361 18.4377 29.1813 18.956 29.9759 18.956C30.7705 18.956 31.414 18.4377 31.414 17.7994C31.414 17.161 30.7705 16.644 29.9759 16.644Z" fill="#F0D9AE"/>
<path fill-rule="evenodd" clip-rule="evenodd" d="M34.8148 5.50391C34.0202 5.50391 33.375 6.0209 33.375 6.65922C33.375 7.29755 34.0202 7.81586 34.8148 7.81586C35.6093 7.81586 36.2529 7.29755 36.2529 6.65922C36.2529 6.0209 35.6093 5.50391 34.8148 5.50391Z" fill="#F0D9AE"/>
</g>
<defs>
<filter id="filter0_d_4_590" x="0" y="0" width="97.8201" height="67.6533" filterUnits="userSpaceOnUse" color-interpolation-filters="sRGB">
<feFlood flood-opacity="0" result="BackgroundImageFix"/>
<feColorMatrix in="SourceAlpha" type="matrix" values="0 0 0 0 0 0 0 0 0 0 0 0 0 0 0 0 0 0 127 0" result="hardAlpha"/>
<feOffset dy="4"/>
<feGaussianBlur stdDeviation="2"/>
<feComposite in2="hardAlpha" operator="out"/>
<feColorMatrix type="matrix" values="0 0 0 0 0 0 0 0 0 0 0 0 0 0 0 0 0 0 0.25 0"/>
<feBlend mode="normal" in2="BackgroundImageFix" result="effect1_dropShadow_4_590"/>
<feBlend mode="normal" in="SourceGraphic" in2="effect1_dropShadow_4_590" result="shape"/>
</filter>
</defs>
</svg>
