<svg width="39" height="36" viewBox="0 0 39 36" fill="none" xmlns="http://www.w3.org/2000/svg">
<g filter="url(#filter0_d_128_868)">
<path d="M8.78869 16.9858C8.78693 16.9762 8.78534 16.9665 8.78391 16.9568L6.77075 4.75567C6.57185 3.5502 5.53932 2.66667 4.32946 2.66667H3.82499C3.36936 2.66667 3 2.29357 3 1.83333C3 1.3731 3.36936 1 3.82499 1H4.32946C6.29593 1 7.98132 2.40049 8.37109 4.33333H35.1745C35.7226 4.33333 36.1183 4.86325 35.9678 5.3956L32.6678 17.0623C32.5666 17.42 32.2429 17.6667 31.8746 17.6667H10.5738L10.7791 18.911C10.978 20.1165 12.0105 21 13.2204 21H31.8746C32.3302 21 32.6995 21.3731 32.6995 21.8333C32.6995 22.2936 32.3302 22.6667 31.8746 22.6667H13.2204C11.2039 22.6667 9.48305 21.1941 9.15155 19.185L8.78869 16.9858ZM8.64879 6L10.2988 16H31.2523L34.0808 6H8.64879ZM12.8998 31C11.0773 31 9.5999 29.5076 9.5999 27.6667C9.5999 25.8257 11.0773 24.3333 12.8998 24.3333C14.7224 24.3333 16.1998 25.8257 16.1998 27.6667C16.1998 29.5076 14.7224 31 12.8998 31ZM12.8998 29.3333C13.8111 29.3333 14.5498 28.5871 14.5498 27.6667C14.5498 26.7462 13.8111 26 12.8998 26C11.9886 26 11.2499 26.7462 11.2499 27.6667C11.2499 28.5871 11.9886 29.3333 12.8998 29.3333ZM27.7496 31C25.9271 31 24.4497 29.5076 24.4497 27.6667C24.4497 25.8257 25.9271 24.3333 27.7496 24.3333C29.5721 24.3333 31.0496 25.8257 31.0496 27.6667C31.0496 29.5076 29.5721 31 27.7496 31ZM27.7496 29.3333C28.6609 29.3333 29.3996 28.5871 29.3996 27.6667C29.3996 26.7462 28.6609 26 27.7496 26C26.8384 26 26.0996 26.7462 26.0996 27.6667C26.0996 28.5871 26.8384 29.3333 27.7496 29.3333Z" fill="#101820"/>
<path d="M6.57342 4.78823L8.58631 16.9878C8.58792 16.9986 8.58969 17.0093 8.59163 17.02L8.95422 19.2176C9.30142 21.3218 11.1046 22.8667 13.2204 22.8667H31.8746C32.4425 22.8667 32.8995 22.4021 32.8995 21.8333C32.8995 21.2645 32.4425 20.8 31.8746 20.8H13.2204C12.1098 20.8 11.1596 19.9888 10.9764 18.8784L10.8095 17.8667H31.8746C32.3336 17.8667 32.735 17.5594 32.8603 17.1167L36.1602 5.45004C36.3461 4.79267 35.858 4.13333 35.1745 4.13333H8.53168C8.06465 2.19208 6.33789 0.8 4.32946 0.8H3.82499C3.25701 0.8 2.8 1.26454 2.8 1.83333C2.8 2.40212 3.25701 2.86667 3.82499 2.86667H4.32946C5.43998 2.86667 6.39022 3.67791 6.57342 4.78823ZM10.4685 15.8L8.8845 6.2H33.8164L31.101 15.8H10.4685ZM9.3999 27.6667C9.3999 29.6162 10.965 31.2 12.8998 31.2C14.8347 31.2 16.3998 29.6162 16.3998 27.6667C16.3998 25.7172 14.8347 24.1333 12.8998 24.1333C10.965 24.1333 9.3999 25.7172 9.3999 27.6667ZM14.3498 27.6667C14.3498 28.4786 13.6988 29.1333 12.8998 29.1333C12.1009 29.1333 11.4499 28.4786 11.4499 27.6667C11.4499 26.8547 12.1009 26.2 12.8998 26.2C13.6988 26.2 14.3498 26.8547 14.3498 27.6667ZM24.2497 27.6667C24.2497 29.6162 25.8148 31.2 27.7496 31.2C29.6845 31.2 31.2496 29.6162 31.2496 27.6667C31.2496 25.7172 29.6845 24.1333 27.7496 24.1333C25.8148 24.1333 24.2497 25.7172 24.2497 27.6667ZM29.1996 27.6667C29.1996 28.4786 28.5485 29.1333 27.7496 29.1333C26.9507 29.1333 26.2996 28.4786 26.2996 27.6667C26.2996 26.8547 26.9507 26.2 27.7496 26.2C28.5485 26.2 29.1996 26.8547 29.1996 27.6667Z" stroke="black" stroke-width="0.4"/>
</g>
<defs>
<filter id="filter0_d_128_868" x="0.599609" y="0.600098" width="37.8008" height="34.7998" filterUnits="userSpaceOnUse" color-interpolation-filters="sRGB">
<feFlood flood-opacity="0" result="BackgroundImageFix"/>
<feColorMatrix in="SourceAlpha" type="matrix" values="0 0 0 0 0 0 0 0 0 0 0 0 0 0 0 0 0 0 127 0" result="hardAlpha"/>
<feOffset dy="2"/>
<feGaussianBlur stdDeviation="1"/>
<feComposite in2="hardAlpha" operator="out"/>
<feColorMatrix type="matrix" values="0 0 0 0 0 0 0 0 0 0 0 0 0 0 0 0 0 0 0.4 0"/>
<feBlend mode="normal" in2="BackgroundImageFix" result="effect1_dropShadow_128_868"/>
<feBlend mode="normal" in="SourceGraphic" in2="effect1_dropShadow_128_868" result="shape"/>
</filter>
</defs>
</svg>
