<svg width="33" height="33" viewBox="0 0 33 33" fill="none" xmlns="http://www.w3.org/2000/svg">
<path d="M32.5527 16.5474C32.5527 18.7906 32.5076 21.0403 32.5656 23.2835C32.6624 27.2543 30.1663 30.3226 26.9866 31.6892C25.7095 32.2371 24.368 32.5272 22.9813 32.5272C18.6406 32.5336 14.2935 32.5917 9.95277 32.5079C6.68274 32.4434 3.99318 31.0768 2.0647 28.3824C1.05209 26.9642 0.568359 25.3527 0.568359 23.6058C0.568359 18.984 0.568359 14.3686 0.568359 9.7468C0.568359 5.97585 2.40654 3.33941 5.67012 1.62475C7.08907 0.883457 8.63056 0.5676 10.2366 0.561154C14.4483 0.561154 18.6664 0.535369 22.8781 0.574046C26.1481 0.59983 28.8764 1.85037 30.8887 4.48036C32.011 5.95006 32.5527 7.63893 32.5527 9.4954C32.5527 11.8418 32.5527 14.1946 32.5527 16.5474ZM2.94832 16.5474C2.94832 18.9131 2.94832 21.2724 2.94832 23.6381C2.94832 24.6952 3.19341 25.6879 3.74164 26.5839C5.17994 28.9367 7.35351 30.0841 10.0495 30.1293C14.3773 30.1937 18.7115 30.155 23.0458 30.1421C24.11 30.1421 25.142 29.923 26.103 29.4653C28.7216 28.2148 30.1857 26.2229 30.1728 23.232C30.147 18.6553 30.1663 14.0786 30.1663 9.50185C30.1663 8.20619 29.7987 7.02011 29.0312 5.97585C27.5477 3.97112 25.4967 2.98487 23.0458 2.95909C18.7244 2.90752 14.4031 2.93975 10.0818 2.9462C9.15945 2.9462 8.26938 3.13313 7.40511 3.45544C5.0316 4.33855 2.82578 6.57533 2.92897 9.86927C3.00637 12.0996 2.94832 14.3235 2.94832 16.5474Z" fill="white"/>
<path d="M16.5966 23.3806C12.4365 23.3806 9.08263 20.0674 9.07618 15.9419C9.06973 11.8809 12.4494 8.5547 16.5837 8.5547C20.7309 8.54825 24.0977 11.868 24.1041 15.9612C24.1041 20.048 20.7438 23.3742 16.5966 23.3806ZM16.5966 20.9956C19.4281 20.9956 21.7242 18.733 21.7177 15.9483C21.7113 13.1894 19.4152 10.9333 16.5966 10.9333C13.7652 10.9333 11.4561 13.183 11.4561 15.9612C11.4626 18.7459 13.7652 21.002 16.5966 20.9956Z" fill="white"/>
<path d="M24.9742 6.29883C25.8449 6.29883 26.5544 7.04013 26.5544 7.94902C26.5479 8.85792 25.832 9.59277 24.9613 9.58632C24.1035 9.57987 23.4004 8.84502 23.4004 7.95547C23.394 7.04657 24.1035 6.29883 24.9742 6.29883Z" fill="white"/>
</svg>
