<svg width="35" height="46" viewBox="0 0 35 46" fill="none" xmlns="http://www.w3.org/2000/svg">
<g filter="url(#filter0_d_525_1321)">
<path d="M17.5 1C9.49172 1 3 7.15594 3 14.75C3 22.3441 17.5 41 17.5 41C17.5 41 32 22.3441 32 14.75C32 7.15594 25.5083 1 17.5 1ZM5.63636 14.75C5.63636 8.54625 10.9579 3.5 17.5 3.5C24.0421 3.5 29.3636 8.54625 29.3636 14.75C29.3636 19.0712 22.7701 29.5034 17.5 36.6994C12.2299 29.5034 5.63636 19.0712 5.63636 14.75ZM17.5 8.5C13.8595 8.5 10.9091 11.2978 10.9091 14.75C10.9091 18.2022 13.8595 21 17.5 21C21.1405 21 24.0909 18.2022 24.0909 14.75C24.0909 11.2978 21.1405 8.5 17.5 8.5ZM17.5 18.5C15.3194 18.5 13.5455 16.8178 13.5455 14.75C13.5455 12.6822 15.3194 11 17.5 11C19.6806 11 21.4545 12.6822 21.4545 14.75C21.4545 16.8178 19.6806 18.5 17.5 18.5Z" fill="#101820"/>
<path d="M17.5 41L17.4605 41.0307L17.5 41.0815L17.5395 41.0307L17.5 41ZM17.5 41C17.5395 41.0307 17.5395 41.0306 17.5396 41.0305L17.5402 41.0298L17.5421 41.0272L17.55 41.0171L17.5812 40.9768C17.6086 40.9412 17.6494 40.8883 17.7025 40.8191C17.8088 40.6805 17.9646 40.4763 18.1629 40.2137C18.5596 39.6885 19.1262 38.9299 19.8061 37.9958C21.1658 36.1276 22.9788 33.5575 24.792 30.7499C26.605 27.9424 28.4188 24.8966 29.7794 22.077C31.139 19.2596 32.05 16.6608 32.05 14.75C32.05 7.12585 25.5334 0.95 17.5 0.95C9.46664 0.95 2.95 7.12585 2.95 14.75C2.95 16.6608 3.86096 19.2596 5.22059 22.077C6.58123 24.8966 8.39496 27.9424 10.208 30.7499C12.0212 33.5575 13.8342 36.1276 15.1939 37.9958C15.8738 38.9299 16.4404 39.6885 16.8371 40.2137C17.0354 40.4763 17.1912 40.6805 17.2975 40.8191C17.3506 40.8883 17.3914 40.9412 17.4188 40.9768L17.45 41.0171L17.4579 41.0272L17.4598 41.0298L17.4604 41.0305C17.4605 41.0306 17.4605 41.0307 17.5 41ZM5.68636 14.75C5.68636 8.57633 10.9829 3.55 17.5 3.55C24.0171 3.55 29.3136 8.57633 29.3136 14.75C29.3136 15.8201 28.9048 17.2747 28.2048 18.9716C27.5054 20.6671 26.5177 22.5991 25.3647 24.6219C23.0705 28.6469 20.1242 33.028 17.5 36.6147C14.8758 33.028 11.9295 28.6469 9.63534 24.6219C8.48234 22.5991 7.49456 20.6671 6.79517 18.9716C6.0952 17.2747 5.68636 15.8201 5.68636 14.75ZM17.5 8.45C13.8344 8.45 10.8591 11.2677 10.8591 14.75C10.8591 18.2323 13.8344 21.05 17.5 21.05C21.1656 21.05 24.1409 18.2323 24.1409 14.75C24.1409 11.2677 21.1656 8.45 17.5 8.45ZM17.5 18.45C15.3445 18.45 13.5955 16.7877 13.5955 14.75C13.5955 12.7123 15.3445 11.05 17.5 11.05C19.6555 11.05 21.4045 12.7123 21.4045 14.75C21.4045 16.7877 19.6555 18.45 17.5 18.45Z" stroke="black" stroke-width="0.1"/>
</g>
<defs>
<filter id="filter0_d_525_1321" x="0.900391" y="0.899902" width="33.1992" height="44.2632" filterUnits="userSpaceOnUse" color-interpolation-filters="sRGB">
<feFlood flood-opacity="0" result="BackgroundImageFix"/>
<feColorMatrix in="SourceAlpha" type="matrix" values="0 0 0 0 0 0 0 0 0 0 0 0 0 0 0 0 0 0 127 0" result="hardAlpha"/>
<feOffset dy="2"/>
<feGaussianBlur stdDeviation="1"/>
<feComposite in2="hardAlpha" operator="out"/>
<feColorMatrix type="matrix" values="0 0 0 0 0 0 0 0 0 0 0 0 0 0 0 0 0 0 0.4 0"/>
<feBlend mode="normal" in2="BackgroundImageFix" result="effect1_dropShadow_525_1321"/>
<feBlend mode="normal" in="SourceGraphic" in2="effect1_dropShadow_525_1321" result="shape"/>
</filter>
</defs>
</svg>
