<svg width="32" height="32" viewBox="0 0 32 32" fill="none" xmlns="http://www.w3.org/2000/svg">
<path d="M9.59245 31.8302C6.06375 31.2865 2.7277 29.1969 1.24538 26.6021C0.216184 24.8002 -0.179474 22.8952 0.0746716 20.9656C0.545669 17.3891 2.71787 14.4604 6.09451 12.8487C7.87472 11.9991 10.4253 11.577 12.3238 11.8175L13.4217 11.9562L13.422 14.8161L13.4222 17.6761L12.3835 17.6387C9.8806 17.5507 8.01598 18.4643 7.05284 20.2478C6.59198 21.1011 6.47524 22.6176 6.79941 23.5413C7.19904 24.6808 8.38073 25.7098 9.80751 26.1613C10.2936 26.3159 10.8195 26.3746 11.7208 26.3719C12.8428 26.3709 13.0489 26.3373 13.8378 26.0191C14.9799 25.5589 15.8133 24.8909 16.3031 24.0429C16.6206 23.4933 16.7228 23.1282 16.8221 22.1893C16.89 21.5461 16.9475 16.2902 16.95 10.5095L16.9532 -0.000976562H19.0923C20.2688 -0.000976562 21.6819 0.0310228 22.2325 0.0710221L23.2336 0.143021V0.565414C23.2336 1.5822 23.9312 3.53257 24.6464 4.51522C24.825 4.76055 25.4489 5.36267 26.0329 5.85333C27.1614 6.80131 28.1134 7.28051 29.5794 7.63783C30.0112 7.7445 30.4667 7.87516 30.5916 7.92849C30.7165 7.98183 30.9521 8.02983 31.115 8.02983C31.278 8.03089 31.5437 8.06183 31.7056 8.09916L32 8.16582V10.8186V13.4713L31.4439 13.4207C28.4369 13.1441 26.0336 12.4604 24.1155 11.3354C23.1623 10.7764 23.0798 10.7434 23.1701 10.9562C23.2026 11.0335 23.1795 13.9559 23.1188 17.4521C23.0136 23.5128 22.9949 23.8498 22.7189 24.6981C21.6581 27.9572 19.2775 30.3772 16.1429 31.3828C14.2262 31.9977 11.774 32.1665 9.59245 31.8302Z" fill="white"/>
</svg>
