<svg width="39" height="44" viewBox="0 0 39 44" fill="none" xmlns="http://www.w3.org/2000/svg">
<g filter="url(#filter0_d_525_1962)">
<path d="M19.4994 20C21.5184 20 23.492 19.4135 25.1708 18.3147C26.8496 17.2159 28.158 15.6541 28.9306 13.8268C29.7033 11.9996 29.9054 9.98891 29.5115 8.0491C29.1176 6.10929 28.1454 4.32746 26.7177 2.92894C25.2901 1.53041 23.4711 0.578004 21.4909 0.192152C19.5107 -0.1937 17.4581 0.00433283 15.5928 0.761209C13.7275 1.51809 12.1331 2.79981 11.0114 4.4443C9.88972 6.08879 9.29102 8.02219 9.29102 10C9.29102 12.6522 10.3665 15.1957 12.281 17.0711C14.1954 18.9464 16.7919 20 19.4994 20ZM19.4994 2.85715C20.9415 2.85715 22.3513 3.27607 23.5504 4.06094C24.7495 4.8458 25.6841 5.96136 26.236 7.26655C26.7879 8.57174 26.9323 10.0079 26.6509 11.3935C26.3696 12.7791 25.6751 14.0518 24.6553 15.0508C23.6356 16.0497 22.3363 16.73 20.9219 17.0056C19.5074 17.2812 18.0413 17.1398 16.709 16.5991C15.3766 16.0585 14.2378 15.143 13.4366 13.9684C12.6353 12.7937 12.2077 11.4127 12.2077 10C12.2077 8.1056 12.9759 6.28879 14.3434 4.94924C15.7108 3.6097 17.5655 2.85715 19.4994 2.85715Z" fill="#101820"/>
<path d="M20.9583 22.8572H18.0417C13.7872 22.8572 9.70689 24.5128 6.6985 27.4598C3.6901 30.4068 2 34.4038 2 38.5715C2 38.9503 2.15365 39.3137 2.42714 39.5816C2.70063 39.8495 3.07156 40 3.45833 40H35.5417C35.9284 40 36.2994 39.8495 36.5729 39.5816C36.8464 39.3137 37 38.9503 37 38.5715C37 34.4038 35.3099 30.4068 32.3015 27.4598C29.2931 24.5128 25.2128 22.8572 20.9583 22.8572ZM5.00417 37.1429C5.36276 34.0009 6.89054 31.0986 9.29557 28.9903C11.7006 26.8821 14.8143 25.7158 18.0417 25.7143H20.9583C24.1857 25.7158 27.2994 26.8821 29.7044 28.9903C32.1095 31.0986 33.6372 34.0009 33.9958 37.1429H5.00417Z" fill="#101820"/>
</g>
<defs>
<filter id="filter0_d_525_1962" x="0" y="0" width="39" height="44" filterUnits="userSpaceOnUse" color-interpolation-filters="sRGB">
<feFlood flood-opacity="0" result="BackgroundImageFix"/>
<feColorMatrix in="SourceAlpha" type="matrix" values="0 0 0 0 0 0 0 0 0 0 0 0 0 0 0 0 0 0 127 0" result="hardAlpha"/>
<feOffset dy="2"/>
<feGaussianBlur stdDeviation="1"/>
<feComposite in2="hardAlpha" operator="out"/>
<feColorMatrix type="matrix" values="0 0 0 0 0 0 0 0 0 0 0 0 0 0 0 0 0 0 0.4 0"/>
<feBlend mode="normal" in2="BackgroundImageFix" result="effect1_dropShadow_525_1962"/>
<feBlend mode="normal" in="SourceGraphic" in2="effect1_dropShadow_525_1962" result="shape"/>
</filter>
</defs>
</svg>
